<svg xmlns="http://www.w3.org/2000/svg" viewBox="0 0 160 160">
  <rect width="160" height="160" rx="32" fill="#0E1F4A"/>
  <g transform="translate(16,16)">
    <g transform="translate(65,0)">
      <path style="fill:#FFFFFF" d="M 3.78125 63.523438 L 3.113281 63.523438 C 1.542969 63.523438 0.269531 62.25 0.269531 60.679688 L 0.269531 2.777344 C 0.269531 1.242188 1.511719 0 3.046875 0 C 19.996094 0 33.734375 13.738281 33.734375 30.6875 L 33.734375 33.570312 C 33.734375 50.113281 20.324219 63.523438 3.78125 63.523438"/>
    </g>
    <path style="fill:#2F51A0" d="M 60.050781 65.152344 L 60.71875 65.152344 C 62.292969 65.152344 63.566406 66.425781 63.566406 67.996094 L 63.566406 125.898438 C 63.566406 127.433594 62.320312 128.675781 60.785156 128.675781 C 43.835938 128.675781 30.097656 114.9375 30.097656 97.988281 L 30.097656 95.105469 C 30.097656 78.5625 43.507812 65.152344 60.050781 65.152344"/>
    <path style="fill:#FF5C29" d="M 65.269531 68.664062 L 65.269531 67.996094 C 65.269531 66.425781 66.542969 65.152344 68.113281 65.152344 L 126.015625 65.152344 C 127.550781 65.152344 128.792969 66.394531 128.792969 67.929688 C 128.792969 84.878906 115.054688 98.617188 98.105469 98.617188 L 95.222656 98.617188 C 78.679688 98.617188 65.269531 85.207031 65.269531 68.664062"/>
    <path style="fill:#EAE42A" d="M 63.5625 60.011719 L 63.5625 60.679688 C 63.5625 62.253906 62.289062 63.527344 60.71875 63.527344 L 2.816406 63.527344 C 1.28125 63.527344 0.0390625 62.28125 0.0390625 60.746094 C 0.0390625 43.796875 13.777344 30.058594 30.726562 30.058594 L 33.609375 30.058594 C 50.152344 30.058594 63.5625 43.46875 63.5625 60.011719"/>
  </g>
</svg>
